<?xml version="1.0" standalone="no"?>
<!DOCTYPE svg PUBLIC "-//W3C//DTD SVG 20010904//EN"
 "http://www.w3.org/TR/2001/REC-SVG-20010904/DTD/svg10.dtd">
<svg version="1.0" xmlns="http://www.w3.org/2000/svg"
 width="300.000000pt" height="300.000000pt" viewBox="0 0 300.000000 300.000000"
 preserveAspectRatio="xMidYMid meet">
<metadata>
Created by potrace 1.14, written by Peter Selinger 2001-2017
</metadata>
<g transform="translate(0.000000,300.000000) scale(0.100000,-0.100000)"
fill="#000000" stroke="none">
<path d="M385 2910 c-86 -25 -166 -65 -187 -95 -4 -5 -8 -6 -8 -2 0 4 -24 -19
-53 -51 -92 -104 -137 -226 -133 -360 1 -42 5 -84 8 -92 3 -8 16 -43 28 -78
21 -58 62 -122 117 -182 14 -15 21 -31 17 -40 -33 -74 -73 -190 -74 -209 0
-14 7 -32 15 -41 12 -13 12 -23 3 -53 -6 -20 -15 -37 -20 -37 -37 0 -52 -74
-52 -265 0 -195 24 -325 92 -500 77 -196 227 -394 398 -522 38 -29 74 -56 79
-61 97 -75 373 -190 525 -217 155 -29 219 -34 395 -31 206 3 329 22 475 71 41
14 80 27 85 29 40 11 174 77 245 120 84 51 140 94 238 185 40 37 129 143 134
161 3 8 1 23 -3 32 -11 20 27 91 45 85 24 -9 50 18 83 90 32 69 67 168 78 217
2 12 7 32 10 46 3 14 8 37 10 53 3 15 8 42 11 60 3 17 6 85 8 150 4 208 -28
392 -100 568 l-35 86 32 34 c83 89 118 160 141 289 42 237 -137 504 -377 561
-97 23 -262 15 -291 -14 -4 -4 -15 -7 -24 -7 -23 0 -126 -68 -172 -113 l-37
-36 -83 30 c-109 40 -266 77 -353 84 -81 6 -281 7 -310 2 -11 -3 -42 -8 -70
-11 -99 -14 -269 -64 -356 -104 -3 -1 -30 20 -60 47 -50 47 -152 106 -199 117
-11 2 -30 7 -42 10 -54 13 -176 10 -233 -6z"/>
</g>
</svg>
